<svg xmlns="http://www.w3.org/2000/svg" viewBox="0 0 100 100" preserveAspectRatio="xMidYMid" style="shape-rendering: auto; display: block; background: none;" width="200" height="200" xmlns:xlink="http://www.w3.org/1999/xlink"><g><g transform="rotate(0 50 50)">
  <rect fill="#960018" height="12" width="2" ry="4.2" rx="1" y="26" x="49">
    <animate repeatCount="indefinite" begin="-0.9615384615384616s" dur="1s" keyTimes="0;1" values="1;0" attributeName="opacity"></animate>
  </rect>
</g><g transform="rotate(13.846153846153847 50 50)">
  <rect fill="#960018" height="12" width="2" ry="4.2" rx="1" y="26" x="49">
    <animate repeatCount="indefinite" begin="-0.9230769230769231s" dur="1s" keyTimes="0;1" values="1;0" attributeName="opacity"></animate>
  </rect>
</g><g transform="rotate(27.692307692307693 50 50)">
  <rect fill="#960018" height="12" width="2" ry="4.2" rx="1" y="26" x="49">
    <animate repeatCount="indefinite" begin="-0.8846153846153846s" dur="1s" keyTimes="0;1" values="1;0" attributeName="opacity"></animate>
  </rect>
</g><g transform="rotate(41.53846153846154 50 50)">
  <rect fill="#960018" height="12" width="2" ry="4.2" rx="1" y="26" x="49">
    <animate repeatCount="indefinite" begin="-0.8461538461538461s" dur="1s" keyTimes="0;1" values="1;0" attributeName="opacity"></animate>
  </rect>
</g><g transform="rotate(55.38461538461539 50 50)">
  <rect fill="#960018" height="12" width="2" ry="4.2" rx="1" y="26" x="49">
    <animate repeatCount="indefinite" begin="-0.8076923076923077s" dur="1s" keyTimes="0;1" values="1;0" attributeName="opacity"></animate>
  </rect>
</g><g transform="rotate(69.23076923076923 50 50)">
  <rect fill="#960018" height="12" width="2" ry="4.2" rx="1" y="26" x="49">
    <animate repeatCount="indefinite" begin="-0.7692307692307693s" dur="1s" keyTimes="0;1" values="1;0" attributeName="opacity"></animate>
  </rect>
</g><g transform="rotate(83.07692307692308 50 50)">
  <rect fill="#960018" height="12" width="2" ry="4.2" rx="1" y="26" x="49">
    <animate repeatCount="indefinite" begin="-0.7307692307692307s" dur="1s" keyTimes="0;1" values="1;0" attributeName="opacity"></animate>
  </rect>
</g><g transform="rotate(96.92307692307692 50 50)">
  <rect fill="#960018" height="12" width="2" ry="4.2" rx="1" y="26" x="49">
    <animate repeatCount="indefinite" begin="-0.6923076923076923s" dur="1s" keyTimes="0;1" values="1;0" attributeName="opacity"></animate>
  </rect>
</g><g transform="rotate(110.76923076923077 50 50)">
  <rect fill="#960018" height="12" width="2" ry="4.2" rx="1" y="26" x="49">
    <animate repeatCount="indefinite" begin="-0.6538461538461539s" dur="1s" keyTimes="0;1" values="1;0" attributeName="opacity"></animate>
  </rect>
</g><g transform="rotate(124.61538461538461 50 50)">
  <rect fill="#960018" height="12" width="2" ry="4.2" rx="1" y="26" x="49">
    <animate repeatCount="indefinite" begin="-0.6153846153846154s" dur="1s" keyTimes="0;1" values="1;0" attributeName="opacity"></animate>
  </rect>
</g><g transform="rotate(138.46153846153845 50 50)">
  <rect fill="#960018" height="12" width="2" ry="4.2" rx="1" y="26" x="49">
    <animate repeatCount="indefinite" begin="-0.5769230769230769s" dur="1s" keyTimes="0;1" values="1;0" attributeName="opacity"></animate>
  </rect>
</g><g transform="rotate(152.30769230769232 50 50)">
  <rect fill="#960018" height="12" width="2" ry="4.2" rx="1" y="26" x="49">
    <animate repeatCount="indefinite" begin="-0.5384615384615384s" dur="1s" keyTimes="0;1" values="1;0" attributeName="opacity"></animate>
  </rect>
</g><g transform="rotate(166.15384615384616 50 50)">
  <rect fill="#960018" height="12" width="2" ry="4.2" rx="1" y="26" x="49">
    <animate repeatCount="indefinite" begin="-0.5s" dur="1s" keyTimes="0;1" values="1;0" attributeName="opacity"></animate>
  </rect>
</g><g transform="rotate(180 50 50)">
  <rect fill="#960018" height="12" width="2" ry="4.2" rx="1" y="26" x="49">
    <animate repeatCount="indefinite" begin="-0.46153846153846156s" dur="1s" keyTimes="0;1" values="1;0" attributeName="opacity"></animate>
  </rect>
</g><g transform="rotate(193.84615384615384 50 50)">
  <rect fill="#960018" height="12" width="2" ry="4.2" rx="1" y="26" x="49">
    <animate repeatCount="indefinite" begin="-0.4230769230769231s" dur="1s" keyTimes="0;1" values="1;0" attributeName="opacity"></animate>
  </rect>
</g><g transform="rotate(207.69230769230768 50 50)">
  <rect fill="#960018" height="12" width="2" ry="4.2" rx="1" y="26" x="49">
    <animate repeatCount="indefinite" begin="-0.38461538461538464s" dur="1s" keyTimes="0;1" values="1;0" attributeName="opacity"></animate>
  </rect>
</g><g transform="rotate(221.53846153846155 50 50)">
  <rect fill="#960018" height="12" width="2" ry="4.2" rx="1" y="26" x="49">
    <animate repeatCount="indefinite" begin="-0.34615384615384615s" dur="1s" keyTimes="0;1" values="1;0" attributeName="opacity"></animate>
  </rect>
</g><g transform="rotate(235.3846153846154 50 50)">
  <rect fill="#960018" height="12" width="2" ry="4.2" rx="1" y="26" x="49">
    <animate repeatCount="indefinite" begin="-0.3076923076923077s" dur="1s" keyTimes="0;1" values="1;0" attributeName="opacity"></animate>
  </rect>
</g><g transform="rotate(249.23076923076923 50 50)">
  <rect fill="#960018" height="12" width="2" ry="4.2" rx="1" y="26" x="49">
    <animate repeatCount="indefinite" begin="-0.2692307692307692s" dur="1s" keyTimes="0;1" values="1;0" attributeName="opacity"></animate>
  </rect>
</g><g transform="rotate(263.0769230769231 50 50)">
  <rect fill="#960018" height="12" width="2" ry="4.2" rx="1" y="26" x="49">
    <animate repeatCount="indefinite" begin="-0.23076923076923078s" dur="1s" keyTimes="0;1" values="1;0" attributeName="opacity"></animate>
  </rect>
</g><g transform="rotate(276.9230769230769 50 50)">
  <rect fill="#960018" height="12" width="2" ry="4.2" rx="1" y="26" x="49">
    <animate repeatCount="indefinite" begin="-0.19230769230769232s" dur="1s" keyTimes="0;1" values="1;0" attributeName="opacity"></animate>
  </rect>
</g><g transform="rotate(290.7692307692308 50 50)">
  <rect fill="#960018" height="12" width="2" ry="4.2" rx="1" y="26" x="49">
    <animate repeatCount="indefinite" begin="-0.15384615384615385s" dur="1s" keyTimes="0;1" values="1;0" attributeName="opacity"></animate>
  </rect>
</g><g transform="rotate(304.61538461538464 50 50)">
  <rect fill="#960018" height="12" width="2" ry="4.2" rx="1" y="26" x="49">
    <animate repeatCount="indefinite" begin="-0.11538461538461539s" dur="1s" keyTimes="0;1" values="1;0" attributeName="opacity"></animate>
  </rect>
</g><g transform="rotate(318.46153846153845 50 50)">
  <rect fill="#960018" height="12" width="2" ry="4.2" rx="1" y="26" x="49">
    <animate repeatCount="indefinite" begin="-0.07692307692307693s" dur="1s" keyTimes="0;1" values="1;0" attributeName="opacity"></animate>
  </rect>
</g><g transform="rotate(332.3076923076923 50 50)">
  <rect fill="#960018" height="12" width="2" ry="4.2" rx="1" y="26" x="49">
    <animate repeatCount="indefinite" begin="-0.038461538461538464s" dur="1s" keyTimes="0;1" values="1;0" attributeName="opacity"></animate>
  </rect>
</g><g transform="rotate(346.15384615384613 50 50)">
  <rect fill="#960018" height="12" width="2" ry="4.2" rx="1" y="26" x="49">
    <animate repeatCount="indefinite" begin="0s" dur="1s" keyTimes="0;1" values="1;0" attributeName="opacity"></animate>
  </rect>
</g><g></g></g><!-- [ldio] generated by https://loading.io --></svg>
